#tb 0: 1/1000
0,          0,          0,        0,    60600, c4a13df44e66f06961dd72fc990439e9
0,         33,         33,        0,    60600, 81c73b8d3806ad96af8f422914a253f8
0,         66,         66,        0,    60600, 05f77526125e802be9cb306e375ded6e
0,        100,        100,        0,    60600, ab2e224840ff89abec2c675a23a73094
0,        133,        133,        0,    60600, c30f58f88819eb57102678b169e15188
0,        166,        166,        0,    60600, 33e5e2799eb4a9c548c8372fd6769db9
0,        200,        200,        0,    60600, fa53c1c7e60bd1d00335af542ec69ed7
0,        233,        233,        0,    60600, 534cafe658af10a314d6d084e55b3620
0,        266,        266,        0,    60600, 502529e4fbecc8b890abf665fa21f53c
0,        300,        300,        0,    60600, bf1f73c6e77370bc51a770c8ae87bd12
